<?xml version="1.0" encoding="UTF-8" standalone="no"?>
<!-- Created with MATLAB -->
<svg
   xmlns:dc="http://purl.org/dc/elements/1.1/"
   xmlns:cc="http://creativecommons.org/ns#"
   xmlns:rdf="http://www.w3.org/1999/02/22-rdf-syntax-ns#"
   xmlns:svg="http://www.w3.org/2000/svg"
   xmlns="http://www.w3.org/2000/svg"
   version="1.1"
   width="330.000000 mm"
   height="908.600000 mm"
   id="svg2">
  <defs
     id="defs4" />
  <metadata
     id="metadata7">
    <rdf:RDF>
      <cc:Work
         rdf:about="">
        <dc:format>image/svg+xml</dc:format>
        <dc:type
           rdf:resource="http://purl.org/dc/dcmitype/StillImage" />
        <dc:title></dc:title>
      </cc:Work>
    </rdf:RDF>
  </metadata>
  <g
     id="layer1">
    <path
       d="M 245.712404 22.761957 L249.214244 23.345597 L252.132443 24.512876 L255.050643 27.431076 L255.050643 30.932915 L252.132443 33.851115 L250.381523 36.769315 L249.797884 40.271154 L249.797884 44.940273 L250.381523 48.442113 L252.132443 54.862152 L255.050643 60.698551 L258.552482 72.954989 L259.136122 79.958668 L259.719762 80.542308 L259.719762 88.129627 L260.303402 91.631467 L259.719762 92.215107 L259.719762 99.802425 L259.136122 100.386065 L259.136122 103.887905 L257.968842 107.389744 L257.968842 109.724304 L256.217923 113.809783 L256.217923 115.560703 L254.467003 119.062543 L253.883363 121.980742 L252.716083 123.731662 L247.463324 134.237180 L243.961484 140.073580 L243.377845 141.824499 L235.206886 154.080938 L224.701367 166.921016 L224.701367 167.504656 L220.032248 172.173775 L220.032248 172.757415 L208.359450 184.430213 L207.775810 184.430213 L203.106690 189.099332 L196.686651 194.352092 L178.010174 208.359450 L172.173775 212.444929 L156.999137 225.285007 L156.415497 225.285007 L152.913658 228.786847 L152.330018 228.786847 L148.244538 232.872326 L147.660898 232.872326 L142.991779 237.541445 L142.408139 237.541445 L134.820820 245.128764 L134.237180 245.128764 L123.148022 256.217923 L123.148022 256.801563 L114.977063 264.972521 L114.977063 265.556161 L110.307944 270.225281 L107.973384 273.727120 L104.471545 277.228960 L97.467866 285.983558 L88.713267 297.656357 L86.378707 301.741836 L84.627788 303.492756 L82.293228 307.578235 L77.040469 315.749194 L74.705909 318.667394 L69.453150 327.421992 L64.200391 336.760231 L56.613072 351.934869 L53.111232 360.689467 L50.776673 367.693146 L50.776673 369.444066 L49.025753 373.529546 L46.107553 386.953264 L45.523913 390.455103 L45.523913 394.540582 L44.940273 395.124222 L44.940273 400.960622 L44.356634 401.544261 L44.356634 414.384340 L43.772994 414.967979 L43.772994 475.666531 L44.356634 476.250171 L44.356634 489.090249 L44.940273 489.673889 L44.940273 496.677568 L45.523913 497.261207 L45.523913 501.930327 L46.107553 502.513967 L46.107553 506.599446 L46.691193 507.183086 L46.691193 510.684926 L47.858473 514.186765 L47.858473 517.104965 L49.025753 520.606804 L49.025753 522.941364 L50.193033 525.859563 L50.193033 528.194123 L53.694872 541.034201 L54.862152 543.368761 L58.947631 555.041559 L59.531271 557.959759 L63.616751 566.714357 L63.616751 567.881637 L66.534950 573.134396 L67.702230 576.052596 L75.873189 592.394514 L77.040469 594.145433 L81.709588 603.483672 L91.631467 621.576509 L103.887905 643.171186 L109.140664 651.925785 L111.475224 654.843984 L112.058864 656.594904 L120.229822 668.851342 L125.482582 675.271382 L134.237180 686.944180 L137.739020 690.446019 L137.739020 691.029659 L143.575419 696.866058 L143.575419 697.449698 L154.080938 707.955217 L154.664577 707.955217 L161.084617 714.375256 L168.671935 720.211655 L171.590135 723.129855 L180.928374 730.133534 L185.013853 732.468093 L197.853931 741.222692 L206.024890 745.891811 L223.534087 754.646410 L224.701367 754.646410 L227.619567 756.397330 L228.786847 756.397330 L232.872326 758.731889 L235.790526 759.315529 L237.541445 760.482809 L242.210565 761.650089 L243.961484 762.817369 L247.463324 763.984649 L255.050643 763.984649 L255.634283 764.568288 L291.236318 764.568288 L291.819957 763.984649 L299.990916 763.984649 "
       id="inner_base_profile"
       style="fill:none;stroke:#ff0000;stroke-width:2;stroke-linecap:butt;stroke-linejoin:miter;stroke-miterlimit:4;stroke-opacity:1;stroke-dasharray:none" />
  </g>
<circle cx="245.712404" cy="22.761957" r="5.000000" fill="red" id="rim_point"/>
<text x="0.000000" y="24.000000" font-family="Verdana" font-size="12">
mouth_radius: 54.2785
</text>
  <g
     id="layer1">
    <path
       d="M 245.712404 22.761957 L234.039606 22.761957 L228.786847 24.512876 L225.868647 25.096516 L222.366808 26.847436 L218.864968 30.349276 L217.697688 33.267475 L217.114048 38.520234 L218.281328 43.189354 L220.615888 47.274833 L228.203207 53.694872 L232.288686 56.029432 L235.206886 58.363991 L242.210565 61.865831 L244.545124 63.616751 L245.712404 67.118590 L245.712404 70.620430 L244.545124 75.289549 L243.377845 77.624109 L240.459645 89.296907 L240.459645 91.631467 L239.292365 93.966026 L235.790526 107.389744 L235.790526 109.724304 L234.623246 112.642504 L230.537766 128.400781 L230.537766 134.237180 L231.121406 137.155380 L228.203207 140.657219 L219.448608 149.411818 L219.448608 149.995458 L186.181133 183.262933 L185.597493 183.262933 L176.842894 192.017532 L173.341055 193.768452 L172.173775 194.935732 L159.917337 201.939411 L155.248217 204.857610 L135.988100 215.946769 L126.066222 221.783168 L123.731662 228.203207 L114.393423 244.545124 L108.557024 249.797884 L105.055185 252.132443 L99.802425 257.385202 L99.218786 257.385202 L89.880547 266.723441 L89.880547 267.307081 L84.627788 272.559840 L81.709588 276.061680 L79.375028 279.563519 L75.289549 284.232639 L72.371349 288.318118 L70.036790 292.403597 L66.534950 297.072717 L64.200391 301.741836 L61.865831 304.660036 L54.862152 318.083754 L54.862152 319.251033 L51.943952 324.503793 L48.442113 333.258391 L43.772994 347.265749 L42.605714 353.102149 L40.854794 357.187628 L37.352955 371.194986 L33.851115 388.704183 L32.683835 399.209702 L31.516555 403.295181 L31.516555 407.380661 L30.932915 407.964301 L30.932915 412.633420 L30.349276 413.217060 L30.349276 417.886179 L29.765636 418.469819 L29.765636 426.057138 L29.181996 426.640778 L29.181996 434.811737 L28.598356 435.395376 L28.598356 470.413771 L29.181996 470.997411 L29.181996 480.335650 L29.765636 480.919290 L29.765636 486.172049 L30.349276 486.755689 L30.349276 492.008448 L30.932915 492.592088 L30.932915 497.261207 L32.100195 501.930327 L32.100195 505.432166 L32.683835 506.015806 L33.267475 513.019485 L34.434755 516.521325 L35.018395 522.941364 L36.769315 528.777763 L36.769315 531.112323 L38.520234 536.365082 L38.520234 538.699641 L39.687514 541.617841 L40.271154 545.703320 L43.772994 556.208839 L44.940273 560.294318 L49.025753 572.550756 L50.193033 575.468956 L51.360313 580.138075 L54.862152 587.725394 L57.196712 593.561793 L57.196712 594.729073 L59.531271 598.814553 L59.531271 599.981832 L62.449471 605.234592 L63.616751 608.152791 L70.036790 620.992869 L71.204070 622.743789 L75.873189 632.082028 L77.040469 633.249308 L82.876868 643.171186 L83.460508 644.922106 L93.966026 660.680384 L99.218786 667.100423 L100.386065 669.434982 L113.809783 685.776900 L113.809783 686.360540 L117.895263 690.446019 L117.895263 691.029659 L123.148022 696.282418 L123.148022 696.866058 L145.326339 719.044375 L145.909979 719.044375 L150.579098 723.713494 L154.664577 726.631694 L160.500977 731.884453 L163.419176 733.635373 L168.088295 737.720852 L176.259254 743.557252 L183.262933 747.642731 L187.932053 751.144570 L196.686651 756.397330 L201.939411 759.315529 L220.615888 768.653768 L221.783168 768.653768 L225.868647 770.988328 L238.708725 776.241087 L243.377845 777.408367 L245.128764 778.575646 L253.883363 781.493846 L255.634283 781.493846 L259.719762 783.244766 L263.221602 783.828406 L266.139801 787.330245 L268.474361 791.415725 L271.976200 796.084844 L277.228960 804.839443 L284.232639 818.263161 L284.232639 818.846801 L288.901758 823.515920 L293.570877 825.850480 L295.905437 826.434119 L299.990916 826.434119 "
       id="outer_base_profile"
       style="fill:none;stroke:#00ff00;stroke-width:2;stroke-linecap:butt;stroke-linejoin:miter;stroke-miterlimit:4;stroke-opacity:1;stroke-dasharray:none" />
  </g>
<circle cx="295.905437" cy="826.434119" r="5.000000" fill="red" id="base_point"/>
  <g
     id="layer1">
    <path
       d="M 229.954126 128.984421 L229.370487 124.315302 L223.534087 112.058864 L221.783168 109.724304 L214.779489 102.720625 L206.608530 97.467866 L200.772131 95.133306 L192.601172 93.382386 L182.095653 93.382386 L179.177454 93.966026 L171.590135 97.467866 L167.504656 99.802425 L163.419176 103.887905 L160.500977 107.973384 L158.750057 111.475224 L156.999137 117.311623 L156.999137 123.148022 L156.415497 123.731662 L156.415497 153.497298 L156.999137 154.080938 L156.999137 161.084617 L157.582777 165.170096 L158.750057 168.671935 L159.333697 173.341055 L160.500977 175.675614 L162.835536 183.262933 L166.337376 189.682972 L169.255575 193.184812 L170.422855 193.768452 L173.924695 193.768452 "
       id="inner_handle_profile"
       style="fill:none;stroke:#0000ff;stroke-width:2;stroke-linecap:butt;stroke-linejoin:miter;stroke-miterlimit:4;stroke-opacity:1;stroke-dasharray:none" />
  </g>
  <g
     id="layer1">
    <path
       d="M 245.128764 70.036790 L239.876005 71.787710 L232.288686 71.787710 L227.035927 70.036790 L225.868647 68.869510 L198.437571 53.694872 L188.515693 53.694872 L187.932053 54.278512 L182.679293 54.278512 L179.177454 55.445792 L174.508335 56.029432 L172.173775 57.196712 L164.002816 60.114911 L154.664577 64.784031 L145.326339 71.787710 L139.489940 77.624109 L134.820820 83.460508 L133.069901 86.962347 L130.735341 89.880547 L126.649862 98.051506 L124.315302 105.055185 L123.731662 107.973384 L123.731662 123.731662 L123.148022 124.315302 L123.148022 140.073580 L123.731662 140.657219 L123.731662 156.415497 L124.315302 156.999137 L124.315302 165.753736 L124.898942 166.337376 L124.898942 173.341055 L125.482582 173.924695 L125.482582 179.177454 L126.066222 179.761094 L126.066222 185.013853 L127.233501 190.266612 L127.233501 194.352092 L128.400781 199.021211 L128.400781 202.523050 L129.568061 206.608530 L129.568061 212.444929 L128.400781 214.779489 L126.649862 220.615888 "
       id="outer_handle_profile"
       style="fill:none;stroke:#ffff00;stroke-width:2;stroke-linecap:butt;stroke-linejoin:miter;stroke-miterlimit:4;stroke-opacity:1;stroke-dasharray:none" />
  </g>
  <g
     id="layer1">
    <path
       d="M 56.029432 137.155380 L56.613072 136.571740 L56.613072 134.237180 L57.196712 133.653541 L57.196712 132.486261 L57.780352 131.902621 L57.780352 131.318981 L58.947631 130.151701 L58.947631 129.568061 L59.531271 128.984421 L59.531271 128.400781 L63.616751 124.315302 L64.200391 124.315302 L65.367670 123.148022 L65.951310 123.148022 L66.534950 122.564382 L67.118590 122.564382 L67.702230 121.980742 L68.285870 121.980742 L68.869510 121.397102 L70.036790 121.397102 L70.620430 120.813462 L72.954989 120.813462 L73.538629 120.229822 L77.040469 120.229822 L77.624109 120.813462 L78.207749 120.813462 L79.375028 121.980742 L79.958668 121.980742 L80.542308 122.564382 L81.125948 122.564382 L82.293228 123.731662 L82.876868 123.731662 L88.713267 129.568061 L89.296907 130.151701 L89.296907 130.735341 L90.464187 131.902621 L91.047827 132.486261 L91.047827 133.069901 L91.631467 133.653541 L91.631467 134.237180 L92.798746 135.404460 L93.382386 135.988100 L93.382386 136.571740 L93.966026 137.155380 L93.966026 138.322660 L94.549666 138.906300 L94.549666 140.073580 L95.133306 140.657219 L95.133306 145.326339 L94.549666 145.909979 L94.549666 147.077259 L92.215107 149.411818 L91.047827 149.411818 L90.464187 149.995458 L88.129627 149.995458 L87.545987 150.579098 L84.044148 150.579098 L83.460508 151.162738 L68.285870 151.162738 L67.702230 150.579098 L64.200391 150.579098 L63.616751 149.995458 L61.865831 149.995458 L61.282191 149.995458 L60.698551 149.411818 L60.114911 149.411818 L59.531271 149.411818 L58.947631 149.411818 L58.363991 148.828178 L57.780352 148.244538 L57.196712 147.660898 L57.196712 147.077259 L57.196712 146.493619 L56.613072 145.909979 L56.613072 145.326339 L56.613072 144.742699 L56.613072 144.159059 L56.029432 143.575419 L56.029432 142.991779 L56.029432 142.408139 L56.029432 141.824499 L56.029432 141.240859 L56.029432 140.657219 L56.029432 140.073580 L56.029432 139.489940 L56.029432 138.906300 L56.029432 138.322660 L56.029432 137.739020 "
       id="handle_section"
       style="fill:none;stroke:#00ffff;stroke-width:2;stroke-linecap:butt;stroke-linejoin:miter;stroke-miterlimit:4;stroke-opacity:1;stroke-dasharray:none" />
  </g>
  <g
     id="layer1">
    <path
       d="M 299.990916 847.153336 L299.990916 193.476632 "
       id="axis"
       style="fill:none;stroke:#0000ff;stroke-width:2;stroke-linecap:butt;stroke-linejoin:miter;stroke-miterlimit:4;stroke-opacity:1;stroke-dasharray:none" />
  </g>
<text x="0.000000" y="48.000000" font-family="Verdana" font-size="12">
ratio_mm_pixels: 0.58364
</text>
</svg>
